<svg width="170" height="170" viewBox="0 0 170 170" fill="none" xmlns="http://www.w3.org/2000/svg">
<path d="M125.658 24.7917H44.3417C36.3388 24.7917 28.6637 27.9708 23.0048 33.6297C17.3459 39.2886 14.1667 46.9638 14.1667 54.9667V115.033C14.1667 123.036 17.3459 130.711 23.0048 136.37C28.6637 142.029 36.3388 145.208 44.3417 145.208H125.658C129.621 145.208 133.545 144.428 137.206 142.911C140.867 141.395 144.193 139.172 146.995 136.37C149.797 133.568 152.02 130.242 153.536 126.581C155.053 122.92 155.833 118.996 155.833 115.033V54.9667C155.833 46.9638 152.654 39.2886 146.995 33.6297C141.336 27.9708 133.661 24.7917 125.658 24.7917ZM123.817 66.5833L100.513 86.3458C96.1779 90.0476 90.6648 92.0813 84.9647 92.0813C79.2645 92.0813 73.7514 90.0476 69.4167 86.3458L45.4751 66.5833C44.3949 65.644 43.7321 64.3141 43.6324 62.8861C43.5328 61.4581 44.0045 60.049 44.9438 58.9688C45.8831 57.8886 47.2131 57.2257 48.6411 57.1261C50.0691 57.0265 51.4782 57.4982 52.5584 58.4375L76.5001 78.3417C78.9215 80.4026 81.9974 81.5344 85.1772 81.5344C88.3569 81.5344 91.4328 80.4026 93.8542 78.3417L117.229 58.5792C118.306 57.6734 119.696 57.2255 121.099 57.3314C122.502 57.4373 123.809 58.0887 124.738 59.1459C125.563 60.2685 125.928 61.6647 125.757 63.0478C125.586 64.4309 124.891 65.696 123.817 66.5833Z" fill="black"/>
</svg>
